<?xml version="1.0" encoding="UTF-8"?>
<svg version="1.1" xmlns="http://www.w3.org/2000/svg" width="1428" height="1415">
<path d="M0 0 C3.45716363 0.004631 6.91397528 -0.00231846 10.37109375 -0.02050781 C41.57164879 -0.1827041 72.37353279 1.4658628 103.25610352 6.12817383 C104.12555603 6.25639526 104.99500854 6.3846167 105.89080811 6.51672363 C146.99824956 12.58919247 187.34851645 22.42064404 226.74822998 35.60211182 C228.17483059 36.07938719 229.60195975 36.5550855 231.02960205 37.02923584 C276.82485122 52.23897146 322.34975242 72.33491244 363.38842773 97.77905273 C366.01579325 99.39870392 368.66510472 100.97630953 371.32250977 102.54614258 C383.88149171 109.97321552 395.95695733 117.90540647 407.88110352 126.31567383 C409.52682813 127.46166331 411.17266249 128.60749519 412.81860352 129.75317383 C431.50282976 142.86389827 449.42358886 156.95776499 466.69287109 171.88134766 C470.17333037 174.88220297 473.71011494 177.78106025 477.31860352 180.62817383 C482.71963138 184.99853217 487.56169923 189.85458787 492.40429688 194.82470703 C496.06413804 198.56888777 499.84423342 202.06485357 503.80761719 205.48461914 C514.83870745 215.22595636 524.78421779 225.90370703 533.60571289 237.65991211 C535.82791868 240.5448661 538.19944638 243.30118363 540.56860352 246.06567383 C544.44063869 250.59738405 548.21979304 255.18868568 551.92407227 259.85864258 C554.03431497 262.50802913 556.17256444 265.13270815 558.31860352 267.75317383 C559.44588867 269.12989258 559.44588867 269.12989258 560.59594727 270.53442383 C562.10497149 272.37104819 563.61792265 274.20445393 565.13500977 276.03442383 C570.59564267 282.64416383 575.81260715 289.40151181 580.88110352 296.31567383 C581.37658691 296.99049805 581.87207031 297.66532227 582.38256836 298.3605957 C607.15658904 332.17694539 628.39542597 368.2099852 645.88110352 406.31567383 C646.67145996 408.03222168 646.67145996 408.03222168 647.4777832 409.78344727 C655.42034888 427.09682634 662.9839572 444.55630465 669.88110352 462.31567383 C670.29424805 463.37915039 670.70739258 464.44262695 671.13305664 465.53833008 C676.95212414 480.71770426 681.72468989 496.13411667 686.19360352 511.75317383 C686.44254364 512.62088409 686.69148376 513.48859436 686.94796753 514.38259888 C692.31924834 533.19088345 696.91685836 552.1129773 700.31860352 571.37817383 C700.46317993 572.1908371 700.60775635 573.00350037 700.75671387 573.84078979 C704.42583329 594.57858704 707.40551509 615.4030178 709.88110352 636.31567383 C709.97411743 637.09140747 710.06713135 637.86714111 710.16296387 638.66638184 C715.62548407 684.75059883 714.95001827 733.22630071 709.88110352 779.31567383 C709.79624695 780.10645325 709.71139038 780.89723267 709.6239624 781.7119751 C705.47370641 820.29769619 697.86667689 857.83601819 687.88110352 895.31567383 C687.60296814 896.36791138 687.60296814 896.36791138 687.31921387 897.44140625 C675.70419364 941.34844624 658.21467331 983.75930615 637.88110352 1024.31567383 C637.41172363 1025.25701172 636.94234375 1026.19834961 636.45874023 1027.16821289 C614.7040724 1070.55830405 587.55119638 1111.73242494 556.88110352 1149.31567383 C555.71321289 1150.75813477 555.71321289 1150.75813477 554.52172852 1152.22973633 C546.15134947 1162.52945806 537.62396104 1172.64735615 528.58422852 1182.36645508 C526.57039396 1184.53764973 524.63357348 1186.76358412 522.70532227 1189.01098633 C518.18432271 1194.19669434 513.31672941 1199.02582886 508.44360352 1203.87817383 C507.54061523 1204.7850293 506.63762695 1205.69188477 505.70727539 1206.6262207 C500.59289009 1211.73319922 495.36877752 1216.61497664 489.88110352 1221.31567383 C488.27341979 1222.770129 486.66870637 1224.22788278 485.06860352 1225.69067383 C480.64922829 1229.68720759 476.08161325 1233.46002352 471.42407227 1237.17504883 C468.77530495 1239.33399121 468.77530495 1239.33399121 466.18188477 1242.08129883 C463.88110352 1244.31567383 463.88110352 1244.31567383 461.88110352 1244.31567383 C461.88110352 1244.97567383 461.88110352 1245.63567383 461.88110352 1246.31567383 C460.3322185 1247.73273884 458.71348818 1249.07376879 457.06860352 1250.37817383 C456.05282227 1251.18899414 455.03704102 1251.99981445 453.99047852 1252.83520508 C452.45133789 1254.06303711 452.45133789 1254.06303711 450.88110352 1255.31567383 C449.19314716 1256.73179672 447.50564157 1258.14845708 445.81860352 1259.56567383 C438.87514719 1265.24668355 431.55693246 1270.40377386 424.25708008 1275.61303711 C421.91252327 1277.29315827 419.57871451 1278.98710941 417.24829102 1280.68676758 C407.94244477 1287.46975296 398.54996887 1294.06005171 388.88110352 1300.31567383 C388.18500977 1300.7673291 387.48891602 1301.21898437 386.77172852 1301.68432617 C373.39569791 1310.33190624 359.69121211 1318.38440897 345.88110352 1326.31567383 C345.10041504 1326.76604004 344.31972656 1327.21640625 343.51538086 1327.68041992 C271.80663203 1368.98895104 189.20951305 1395.04164316 47.88110352 1413.31567383 C46.79082855 1413.38665787 46.79082855 1413.38665787 45.67852783 1413.45907593 C29.31640202 1414.49770072 12.94321319 1414.50319295 -3.44458008 1414.50097656 C-6.5465278 1414.50089561 -9.64832685 1414.50780583 -12.75024414 1414.52148438 C-38.20058892 1414.6317926 -63.46987476 1413.89358255 -88.74389648 1410.56567383 C-89.70656937 1410.4411232 -89.70656937 1410.4411232 -90.68869019 1410.3140564 C-156.04980656 1401.81909051 -220.00273552 1384.48966112 -280.69848633 1358.75708008 C-283.25064962 1357.68156458 -285.80720193 1356.62356175 -288.37133789 1355.57739258 C-299.67446402 1350.93698014 -310.65093544 1345.78406077 -321.56274414 1340.28930664 C-324.24501919 1338.9401091 -326.9334989 1337.60392114 -329.62280273 1336.26879883 C-340.11966803 1331.02666423 -350.32627432 1325.44972205 -360.36383057 1319.37493896 C-362.70990458 1317.95897254 -365.07485161 1316.57583874 -367.43920898 1315.19067383 C-380.29890169 1307.53893162 -392.78500036 1299.34805297 -405.24389648 1291.06567383 C-406.08196838 1290.51041016 -406.92004028 1289.95514648 -407.7835083 1289.38305664 C-421.84862109 1280.05201465 -435.11507874 1270.08361127 -448.11889648 1259.31567383 C-450.99257181 1256.93906667 -453.8679565 1254.56453976 -456.74389648 1252.19067383 C-457.47705078 1251.58408936 -458.21020508 1250.97750488 -458.96557617 1250.35253906 C-463.43957222 1246.66144178 -467.96146246 1243.0650344 -472.65014648 1239.64770508 C-474.11889648 1238.31567383 -474.11889648 1238.31567383 -475.11889648 1235.31567383 C-476.44322322 1234.63129022 -477.77866773 1233.96836756 -479.11889648 1233.31567383 C-480.84349727 1231.83704528 -482.52707794 1230.3100362 -484.18139648 1228.75317383 C-487.73820215 1225.43767836 -491.34248441 1222.30741858 -495.18139648 1219.31567383 C-500.57990998 1214.96102874 -505.46635377 1210.15521878 -510.36889648 1205.25317383 C-511.12565674 1204.49713867 -511.88241699 1203.74110352 -512.66210938 1202.9621582 C-516.79025548 1198.79365123 -520.75890824 1194.53944831 -524.56567383 1190.07495117 C-526.13602371 1188.29627446 -527.78315125 1186.64629345 -529.49389648 1185.00317383 C-533.19619581 1181.35846582 -536.40944849 1177.38182525 -539.66577148 1173.33911133 C-542.27310408 1170.12561542 -544.9369676 1166.96680049 -547.61889648 1163.81567383 C-552.5225398 1158.03855846 -557.3652214 1152.21734527 -562.11889648 1146.31567383 C-562.53075195 1145.80488281 -562.94260742 1145.2940918 -563.36694336 1144.76782227 C-582.78012456 1120.6108186 -600.26890244 1094.7937481 -616.03930664 1068.12768555 C-617.09841779 1066.35004579 -618.17376422 1064.58345685 -619.25561523 1062.81958008 C-628.61482424 1047.51660801 -637.18229991 1031.71141696 -645.01586914 1015.57495117 C-646.26883446 1013.00856316 -647.5442769 1010.45379431 -648.81811523 1007.89770508 C-668.99925472 967.0588384 -684.2545755 923.53308946 -695.11889648 879.31567383 C-695.2905835 878.61994263 -695.46227051 877.92421143 -695.63916016 877.20739746 C-702.49562816 849.3365676 -708.0148645 821.26816373 -711.36889648 792.75317383 C-711.52003906 791.49182617 -711.67118164 790.23047852 -711.8269043 788.9309082 C-714.88678111 761.12263719 -715.47280591 733.27125059 -715.43457031 705.32299805 C-715.42992953 701.65132426 -715.43692229 697.97998107 -715.45507812 694.30834961 C-715.5700958 670.79403199 -714.85542098 647.68283889 -712.11889648 624.31567383 C-712.01421051 623.40603882 -711.90952454 622.49640381 -711.80166626 621.5592041 C-711.24648732 616.83795431 -710.59362922 612.13939422 -709.86889648 607.44067383 C-709.76596283 606.7611969 -709.66302917 606.08171997 -709.55697632 605.38165283 C-707.00083712 588.57473251 -703.78510417 571.9138876 -700.11889648 555.31567383 C-699.95450073 554.56684937 -699.79010498 553.8180249 -699.62072754 553.04650879 C-694.66419715 530.58388371 -688.24165205 508.68404613 -681.11889648 486.81567383 C-680.5627919 485.09773621 -680.5627919 485.09773621 -679.99545288 483.34509277 C-673.32140571 462.82369337 -665.41281088 442.91325478 -656.24389648 423.37817383 C-655.74543213 422.30865479 -655.24696777 421.23913574 -654.73339844 420.13720703 C-653.20193414 416.8601666 -651.66156211 413.58745389 -650.11889648 410.31567383 C-649.63694824 409.28861328 -649.155 408.26155273 -648.65844727 407.20336914 C-627.90301312 363.04975002 -627.90301312 363.04975002 -615.28051758 343.15014648 C-613.93810479 341.03016126 -612.61668452 338.89765962 -611.29467773 336.76489258 C-597.42807894 314.4894662 -582.22273601 293.23524821 -565.50854492 273.00512695 C-563.60448054 270.69027707 -561.73498515 268.34869239 -559.86889648 266.00317383 C-549.9124958 253.53169071 -539.70320609 241.26019901 -529.11889648 229.31567383 C-528.48878662 228.60072754 -527.85867676 227.88578125 -527.20947266 227.14916992 C-521.81908803 221.08833945 -516.22788977 215.26856945 -510.47998047 209.54638672 C-509.05049932 208.12229891 -507.62649137 206.69289339 -506.20288086 205.26293945 C-501.55924261 200.62576416 -496.87324555 196.10952297 -491.890625 191.83789062 C-489.23990716 189.56047217 -486.68574976 187.18722305 -484.11889648 184.81567383 C-480.17662991 181.18429794 -476.19963831 177.60336014 -472.14233398 174.10083008 C-470.66741728 172.79960048 -469.21741494 171.46996957 -467.78295898 170.12426758 C-460.90352008 163.68899665 -453.62312338 157.99722104 -446.10327148 152.33520508 C-443.11207527 150.08210525 -440.19119503 147.76682795 -437.30639648 145.37817383 C-362.21912686 85.03119035 -269.27950215 43.85594493 -86.11889648 4.00317383 C-85.44433411 3.92772339 -84.76977173 3.85227295 -84.07476807 3.77453613 C-56.11899019 0.70874581 -28.09770943 -0.04072778 0 0 Z M-14.03588867 93.36987305 C-70.7762983 94.53321278 -127.76522795 102.78905682 -182.11889648 119.31567383 C-183.13483887 119.61957031 -184.15078125 119.9234668 -185.19750977 120.23657227 C-221.9955811 131.38966715 -260.69850948 145.64293166 -293.57666016 165.83178711 C-296.28510532 167.41268884 -299.04444609 168.7930649 -301.86499023 170.16333008 C-308.8932813 173.6162379 -315.51957622 177.6558876 -322.18139648 181.75317383 C-323.38231456 182.48601178 -324.58348585 183.21843493 -325.78491211 183.95043945 C-335.5360858 189.90279834 -345.23073495 195.90674017 -354.54858398 202.52270508 C-357.2235361 204.38866711 -359.94675273 206.16352796 -362.68139648 207.94067383 C-374.42364053 215.74368176 -385.44618628 224.56379525 -396.12280273 233.75708008 C-399.01730801 236.22891966 -401.96290932 238.6210545 -404.93139648 241.00317383 C-408.95040243 244.2708004 -412.62726706 247.71045527 -416.23217773 251.42504883 C-418.08374647 253.28045103 -420.00143321 254.98852956 -421.99389648 256.69067383 C-426.02328094 260.15120401 -429.72744526 263.88661582 -433.43139648 267.69067383 C-435.53236994 269.74278744 -437.65157262 271.66632216 -439.87280273 273.58129883 C-444.45609963 277.55742978 -448.76912235 281.77428742 -453.05639648 286.06567383 C-453.84908936 286.85844727 -454.64178223 287.6512207 -455.45849609 288.46801758 C-460.35385985 293.41126145 -464.91778285 298.41719758 -469.20092773 303.90161133 C-471.15532018 306.36151873 -473.22796319 308.6421494 -475.36889648 310.94067383 C-480.66719746 316.74931903 -485.32716171 323.02017242 -490.06030273 329.28833008 C-492.35588618 332.32654069 -494.70450769 335.30792577 -497.11889648 338.25317383 C-508.32288603 352.2172276 -517.94688187 367.10830994 -527.29321289 382.35668945 C-529.0193635 385.15435532 -530.77163456 387.93317012 -532.53686523 390.70629883 C-540.47092139 403.21855314 -547.46594896 416.08228761 -554.11889648 429.31567383 C-554.74022248 430.54427685 -555.36156109 431.77287349 -555.98291016 433.00146484 C-594.12197655 508.61610565 -614.73646703 589.14225613 -593.18997192 890.90270996 C-575.06492756 945.5702413 -550.72825045 997.7294263 -518.11889648 1045.31567383 C-517.21384964 1046.64503356 -516.30890433 1047.97446244 -515.40405273 1049.30395508 C-500.6228619 1070.96380486 -485.10801417 1091.52022133 -467.36108398 1110.85473633 C-465.34861541 1113.0635433 -463.38231633 1115.30260681 -461.43139648 1117.56567383 C-458.70598958 1120.70595533 -455.82629365 1123.6297415 -452.86108398 1126.54223633 C-451.07173822 1128.36367798 -449.40601116 1130.25281662 -447.74389648 1132.19067383 C-443.76752602 1136.80290534 -439.45545652 1141.04519471 -435.11889648 1145.31567383 C-433.91233398 1146.55317383 -433.91233398 1146.55317383 -432.68139648 1147.81567383 C-426.14902883 1154.18871544 -419.24652623 1160.07594161 -412.15405273 1165.81176758 C-408.66813703 1168.68753588 -405.26931885 1171.65242118 -401.86889648 1174.62817383 C-362.97774355 1208.50968565 -318.47506992 1237.59453977 -271.61328125 1259.1340332 C-268.87835856 1260.42962152 -266.19375195 1261.80830399 -263.50170898 1263.19067383 C-256.27146403 1266.8262435 -248.8154838 1269.81559982 -241.30639648 1272.81567383 C-239.94618794 1273.3633979 -238.58616123 1273.91157376 -237.22631836 1274.46020508 C-234.51707451 1275.55252896 -231.80550075 1276.63877388 -229.09228516 1277.72119141 C-226.52243747 1278.74793591 -223.96084709 1279.7917672 -221.40527344 1280.85351562 C-211.7362899 1284.82826281 -201.92911717 1288.0828524 -191.93139648 1291.12817383 C-191.09384827 1291.38479797 -190.25630005 1291.64142212 -189.39337158 1291.90582275 C-171.46205426 1297.38268867 -153.38338384 1302.09321194 -135.11889648 1306.31567383 C-133.87027832 1306.60667969 -132.62166016 1306.89768555 -131.33520508 1307.19750977 C-102.06357565 1313.91870338 -72.10459057 1317.79936469 -42.11889648 1319.31567383 C-41.05590332 1319.37207031 -39.99291016 1319.4284668 -38.89770508 1319.48657227 C16.15367947 1322.26752698 70.91385078 1320.11641506 124.88110352 1308.31567383 C125.55020752 1308.17063416 126.21931152 1308.02559448 126.90869141 1307.87615967 C194.7954094 1293.13255707 259.1389543 1267.89359533 318.88110352 1232.31567383 C319.79988281 1231.77313965 320.71866211 1231.23060547 321.6652832 1230.67163086 C341.79835522 1218.75172647 361.90598289 1206.35852105 379.88110352 1191.31567383 C380.41171387 1190.87449219 380.94232422 1190.43331055 381.48901367 1189.97875977 C386.51041003 1185.79501473 391.46464431 1181.53402071 396.42016602 1177.27270508 C397.31832031 1176.50108032 397.31832031 1176.50108032 398.23461914 1175.71386719 C399.35703521 1174.74876881 400.47827702 1173.78230168 401.59790039 1172.81396484 C404.12601002 1170.6365111 406.66574882 1168.4875511 409.27398682 1166.40588379 C416.08126346 1160.96149169 422.33608166 1155.15399095 428.48266602 1148.97973633 C429.45400552 1148.00975047 430.42564117 1147.0400611 431.39755249 1146.07064819 C433.41583343 1144.0552857 435.43053157 1142.03643005 437.44262695 1140.01489258 C439.99158082 1137.45454629 442.5494144 1134.90329002 445.11004066 1132.35462379 C447.11284548 1130.35912725 449.11076311 1128.35879144 451.10734177 1126.35706711 C452.49642348 1124.96604689 453.88945371 1123.57897313 455.28262329 1122.19204712 C461.23081488 1116.20049117 466.61511159 1109.90973641 471.88110352 1103.31567383 C472.79310456 1102.23786551 473.71110078 1101.16505542 474.63891602 1100.10083008 C482.28003996 1091.31227663 489.22035141 1082.03949607 496.13549805 1072.67407227 C497.654082 1070.62239101 499.18394974 1068.58012789 500.72094727 1066.54223633 C517.825488 1043.74042579 533.34539562 1019.40317142 546.88110352 994.31567383 C547.34371582 993.46279785 547.80632812 992.60992188 548.28295898 991.73120117 C555.58802234 978.20268976 562.09646246 964.55463598 567.88110352 950.31567383 C568.48030895 948.85408238 569.07994969 947.39266935 569.67993164 945.93139648 C578.14002344 925.30007647 586.46070202 904.68962469 592.88110352 883.31567383 C593.17730591 882.33232056 593.17730591 882.33232056 593.47949219 881.32910156 C603.82698794 846.86568785 610.73116728 812.04866383 614.88110352 776.31567383 C614.96467102 775.61595459 615.04823853 774.91623535 615.13433838 774.1953125 C620.4457274 729.49625684 621.07615186 680.9436502 614.88110352 636.31567383 C614.71354553 635.09050049 614.71354553 635.09050049 614.54260254 633.84057617 C603.95575259 556.96353821 582.66277377 479.9795512 542.5168457 413.05834961 C540.55983447 409.77699675 538.65103278 406.46989449 536.75024414 403.15576172 C521.90891427 377.02856944 521.90891427 377.02856944 504.88110352 352.31567383 C504.47585449 351.78119629 504.07060547 351.24671875 503.65307617 350.69604492 C501.16572805 347.41933954 498.6498558 344.16591583 496.12231445 340.92016602 C494.88713247 339.32346735 493.66716628 337.7162667 492.45141602 336.10473633 C486.73282253 328.54298824 480.70838667 321.30414657 474.48266602 314.15551758 C472.8093317 312.23322377 471.14154315 310.3062307 469.47485352 308.37817383 C466.73639088 305.21125223 463.99303711 302.0486315 461.24682617 298.88842773 C460.12699293 297.59883786 459.0095674 296.30715758 457.89282227 295.01489258 C456.23479146 293.10360647 454.56209959 291.20679441 452.88110352 289.31567383 C452.08704102 288.41719727 451.29297852 287.5187207 450.47485352 286.59301758 C444.5820846 280.0006308 438.36433914 273.9278921 431.81079102 267.99536133 C429.54810441 265.92575731 427.38125165 263.83466735 425.25610352 261.62817383 C421.76014511 258.07252833 417.90490238 255.01559521 414.02563477 251.88989258 C410.47191591 249.00583011 407.02041931 246.00783567 403.56860352 243.00317383 C402.92882568 242.44791016 402.28904785 241.89264648 401.62988281 241.32055664 C398.58111013 238.67264607 395.54036581 236.01641136 392.51391602 233.34301758 C364.19654458 208.48377759 331.70301509 188.61194621 298.88110352 170.31567383 C297.92300781 169.77910156 296.96491211 169.2425293 295.9777832 168.68969727 C273.92695975 156.38142052 251.33394066 146.52769721 227.7638092 137.57554626 C223.36230232 135.89788853 218.98793779 134.16187475 214.62329102 132.38989258 C198.93968901 126.0345599 183.22053263 120.71933552 166.88110352 116.31567383 C165.66535645 115.98470703 164.44960938 115.65374023 163.19702148 115.31274414 C141.3169827 109.41903605 119.22450314 105.0508422 96.88110352 101.31567383 C95.61814453 101.10426758 94.35518555 100.89286133 93.05395508 100.67504883 C63.92599977 95.9181524 34.37044327 93.88683361 4.88110352 93.31567383 C4.1316748 93.29907715 3.38224609 93.28248047 2.61010742 93.26538086 C-2.94270802 93.15506002 -8.48453584 93.26672605 -14.03588867 93.36987305 Z " fill="#E32027" transform="translate(715.118896484375,0.684326171875)"/>
<path d="M0 0 C1.15097168 0.01611328 2.30194336 0.03222656 3.48779297 0.04882812 C19.85298368 0.42572621 36.84279551 3.17267233 49.4375 14.625 C58.6605769 25.23153844 64.55498568 37.79602061 64.56778526 51.91306305 C64.57140961 53.23027454 64.57503396 54.54748603 64.57876813 55.90461302 C64.57777154 57.3649976 64.57668942 58.82538213 64.57553101 60.2857666 C64.57794948 61.8384154 64.58081188 63.39106356 64.58408034 64.9437108 C64.59183351 69.21307091 64.59345277 73.48241494 64.59413147 77.75178123 C64.59597138 82.35609663 64.60357877 86.96040264 64.61061096 91.56471252 C64.62213985 99.547652 64.63038289 107.53058937 64.63673019 115.51353455 C64.64706441 128.14677315 64.66763241 140.77998551 64.68984985 153.41320801 C64.69732999 157.73809043 64.70474375 162.06297296 64.71213722 166.38785553 C64.71398779 167.46881074 64.71583835 168.54976596 64.717745 169.66347739 C64.73867655 181.97144981 64.75750005 194.27942515 64.77539062 206.58740234 C64.77702881 207.71250932 64.77866699 208.83761629 64.78035481 209.99681741 C64.80659229 228.19528013 64.82526126 246.39374487 64.84198253 264.59221846 C64.85944421 283.29533708 64.8883363 301.99841623 64.9268719 320.70150328 C64.95019212 332.22474698 64.96425927 343.74792626 64.96619953 355.27119374 C64.9683198 363.18412265 64.98133942 371.09698773 65.00267886 379.00988793 C65.01462671 383.56536096 65.0219141 388.12070737 65.01596642 392.67619514 C64.28487563 437.86505851 64.28487563 437.86505851 85.0625 476.6875 C102.65924861 493.24758215 126.85513183 498.65658901 150.4375 498.4375 C181.52799717 497.4591482 207.60909966 486.7864965 235.40380859 473.84765625 C240.26138091 471.58970215 245.1303344 469.35672573 250 467.125 C250.97163086 466.67922607 251.94326172 466.23345215 252.94433594 465.77416992 C261.92615747 461.65907062 270.93139799 457.59647749 279.93780518 453.5355835 C292.46157622 447.88790893 304.95497545 442.17577989 317.4375 436.4375 C321.24948861 434.68638421 325.06203673 432.93649245 328.875 431.1875 C329.8546875 430.73802002 330.834375 430.28854004 331.84375 429.82543945 C337.50494558 427.23087525 343.17142034 424.64825073 348.84375 422.078125 C365.0781869 414.72058821 381.27471632 407.28667402 397.44058228 399.77957153 C409.29765894 394.2739251 421.16820807 388.79978335 433.0625 383.375 C445.36941728 377.76190168 457.65899711 372.11248784 469.9375 366.4375 C485.94268792 359.04115419 501.96901197 351.69226706 518.00938416 344.37257385 C522.98329357 342.10251428 527.95503931 339.82776719 532.92578125 337.55078125 C535.06730556 336.57019192 537.20887224 335.58969521 539.35046387 334.60925293 C540.77983883 333.95475521 542.20911995 333.30005247 543.63830566 332.6451416 C552.5121721 328.57965496 561.40119722 324.55011509 570.30859375 320.55859375 C573.10702674 319.3019572 575.90530807 318.04498338 578.70358276 316.78799438 C580.48716857 315.98849162 582.27173294 315.19116727 584.05740356 314.39633179 C593.43194348 310.22351487 602.70360036 305.90870466 611.8125 301.1796875 C612.59133545 300.77992706 613.3701709 300.38016663 614.17260742 299.96829224 C622.89227472 295.36206127 630.01369276 289.68795268 633.05004883 279.99291992 C635.36202362 271.07293891 634.92008578 261.82541033 634.94921875 252.67578125 C634.96608836 250.67366958 634.98424163 248.67156836 635.00361633 246.66947937 C635.05087466 241.43355575 635.08083981 236.1976745 635.10705566 230.96160889 C635.13698383 225.60518024 635.18347172 220.24889721 635.22851562 214.89257812 C635.31427343 204.40762864 635.38174041 193.92264896 635.4375 183.4375 C612.8296273 193.51987041 612.8296273 193.51987041 590.375 203.9375 C588.35790657 204.88768865 586.34028254 205.83674476 584.32264709 206.78578186 C582.97399328 207.42021418 581.62546986 208.05492378 580.27708435 208.68992615 C554.52536491 220.81690847 528.65697663 232.69068441 502.5625 244.0625 C494.35163474 247.64489966 486.24681844 251.40144434 478.1875 255.3125 C462.24132362 263.04783703 446.03967556 270.20663801 429.82391357 277.35380554 C414.28279882 284.20520772 398.80800096 291.11554135 383.54223633 298.56542969 C364.87302503 307.64934293 345.85579231 316.01416301 326.9152832 324.51318359 C321.10998134 327.12243361 315.34147563 329.80311532 309.578125 332.50390625 C296.54690095 338.59968114 283.47754146 344.59184217 270.25 350.25 C260.11602693 354.5980252 250.197756 359.3563717 240.28662109 364.18359375 C228.75730042 369.79558254 217.12082218 375.1544817 205.4375 380.4375 C203.60021768 381.27204134 201.76297738 382.10667519 199.92578125 382.94140625 C195.79504623 384.81490694 191.65678703 386.67064808 187.51171875 388.51220703 C185.70127167 389.3198335 183.89695837 390.14118198 182.09375 390.96484375 C161.05599694 400.26782864 135.79310047 403.11775149 113.7890625 395.5234375 C101.30409271 390.28230684 91.65404182 382.59292173 85.4375 370.4375 C82.14007241 361.79046933 80.30749721 353.49906719 80.32397461 344.23876953 C80.32382858 343.54538986 80.32368256 342.85201019 80.3235321 342.13761902 C80.32422404 339.86515074 80.3319825 337.59276631 80.33984375 335.3203125 C80.34171049 333.73705083 80.34313318 332.15378858 80.34413147 330.57052612 C80.34793651 326.41787094 80.35774949 322.26525114 80.36883545 318.11260986 C80.37909297 313.86934894 80.38363837 309.62608227 80.38867188 305.3828125 C80.39937367 297.06769216 80.41642576 288.75260049 80.4375 280.4375 C84.43541692 282.31007825 87.51621118 284.9181082 90.8125 287.8125 C92.06091232 288.89876582 93.30961891 289.98469351 94.55859375 291.0703125 C95.19780762 291.62750977 95.83702148 292.18470703 96.49560547 292.75878906 C98.39003403 294.39646706 100.30191472 296.01049495 102.22265625 297.6171875 C113.4102222 307.00556184 113.4102222 307.00556184 117.91015625 312.9140625 C121.21082977 316.2062944 125.24760056 316.76673863 129.75 316.875 C145.04281858 316.50381508 158.70195555 308.65632261 172.10498047 302.06005859 C177.61415224 299.37771753 183.1658181 296.78738875 188.72015381 294.20016479 C190.54106756 293.3516128 192.36065459 292.50021556 194.18017578 291.64868164 C204.55320736 286.8088371 214.99268306 282.11997223 225.4375 277.4375 C228.70071286 275.97308389 231.96365596 274.50806724 235.2265625 273.04296875 C236.02783569 272.6832045 236.82910889 272.32344025 237.65466309 271.95277405 C252.4412699 265.31257445 267.21935147 258.65948341 281.92236328 251.83569336 C287.65694817 249.17610312 293.40112713 246.53972353 299.16015625 243.93359375 C299.83148087 243.62975769 300.50280548 243.32592163 301.19447327 243.01287842 C302.57620856 242.38758474 303.95794791 241.76230001 305.33969116 241.13702393 C318.18066732 235.3248575 330.95843259 229.39231196 343.69927979 223.36398315 C353.85987356 218.55927904 364.05969793 213.85460881 374.3125 209.25 C388.74503253 202.76801409 403.09970842 196.12670032 417.4375 189.4375 C443.29101779 177.38166666 469.16935143 165.36148518 495.34838867 154.02490234 C500.5781752 151.7490231 505.69978748 149.33840725 510.78637695 146.75927734 C515.99135347 144.1642186 521.28340354 141.75216866 526.5625 139.3125 C527.80121112 138.73914468 529.03989886 138.16573884 530.27856445 137.59228516 C532.7930474 136.42877026 535.30812285 135.26654996 537.82373047 134.10546875 C540.10699033 133.05160904 542.38991291 131.99701801 544.67236328 130.94140625 C556.58555172 125.43391654 568.54466779 120.04794887 580.56640625 114.78173828 C588.59688827 111.25905013 596.6082989 107.69561047 604.60470581 104.09634399 C605.92367505 103.50299612 607.24309335 102.91064518 608.5630188 102.31942749 C615.29840019 99.30112242 621.97422789 96.20046485 628.5625 92.87109375 C635.03331937 89.60280158 641.60393214 86.64139651 648.25 83.75 C658.63736172 79.19536754 668.89012367 74.42108865 679.0402832 69.35864258 C690.09444235 63.92877412 701.42452873 59.87379238 713.86328125 63.05859375 C720.54280581 65.97683263 725.09973284 71.42967269 728.00967407 77.97236633 C730.43269774 85.49941523 729.85510397 93.54732955 729.82568359 101.36791992 C729.82975364 103.18574844 729.83509794 105.00357448 729.84161377 106.82139587 C729.85525429 111.74373276 729.84999882 116.66588029 729.84047651 121.58822036 C729.83284795 126.7642476 729.83993576 131.9402593 729.84463501 137.11628723 C729.85008962 145.82096236 729.84291529 154.5255611 729.82861328 163.23022461 C729.81235407 173.24055765 729.8175273 183.25070671 729.8340925 193.26103514 C729.84779588 201.89250275 729.84958218 210.52391557 729.84177649 219.15539056 C729.83713962 224.29352177 729.83636218 229.43156719 729.84638596 234.56969261 C729.9158445 275.88140844 727.91406771 314.35771685 697.890625 346.11328125 C668.36101759 374.09117362 625.61373851 389.70475207 589.06362915 405.93132019 C582.58164524 408.81175798 576.12173138 411.74053399 569.66104126 414.66833496 C559.63231043 419.21211658 549.58643236 423.71029871 539.5 428.125 C523.08131187 435.32173199 506.80608851 442.77854764 490.6875 450.625 C479.48882744 456.06653976 468.1655483 461.17217449 456.77536011 466.1963501 C443.49575169 472.054602 430.28986258 478.05955789 417.11083984 484.14038086 C415.57521549 484.8488393 414.03957104 485.5572542 412.50390625 486.265625 C411.74905945 486.61387833 410.99421265 486.96213165 410.2164917 487.32093811 C405.03730267 489.70766357 399.84839438 492.07210105 394.65234375 494.421875 C393.94412476 494.74217178 393.23590576 495.06246857 392.50622559 495.39247131 C391.09585213 496.03022697 389.68547214 496.6679682 388.27508545 497.30569458 C376.97729853 502.4161735 365.74581129 507.63660527 354.58129883 513.03393555 C335.49241134 522.25662195 316.19844464 531.03253784 296.875 539.75 C296.04676727 540.12441223 295.21853455 540.49882446 294.36520386 540.88458252 C284.67460675 545.26225461 274.94807723 549.52342744 265.12915039 553.60580444 C260.56759256 555.51044675 256.08239378 557.51994092 251.62109375 559.65234375 C245.08639906 562.70751228 238.39776418 564.91537979 231.5 567 C230.23873291 567.38494629 228.97746582 567.76989258 227.67797852 568.16650391 C210.21183389 573.439021 192.55708967 577.26960043 174.4375 579.4375 C173.24858154 579.58106934 173.24858154 579.58106934 172.03564453 579.72753906 C163.27292284 580.65623777 154.48938647 580.68095411 145.6875 580.6875 C144.86969055 580.68817474 144.0518811 580.68884949 143.20928955 580.68954468 C122.95780456 580.66309122 103.82984406 578.45006679 84.4375 572.4375 C83.72432617 572.21723145 83.01115234 571.99696289 82.27636719 571.77001953 C52.44625782 562.34458112 23.51665351 545.64426485 4.4375 520.4375 C3.62796875 519.44234375 2.8184375 518.4471875 1.984375 517.421875 C-23.96807151 485.38323529 -29.73961077 446.21379101 -29.69621277 406.15429688 C-29.69808651 404.4837441 -29.70038943 402.81319177 -29.70307809 401.14264011 C-29.709132 396.60358525 -29.70907019 392.06454897 -29.70788372 387.525491 C-29.70767809 382.61077679 -29.71321343 377.6960683 -29.71794128 372.78135681 C-29.72621082 363.17600005 -29.72899436 353.57064944 -29.72955366 343.96528941 C-29.73003015 336.15875366 -29.73209149 328.35221993 -29.73525429 320.54568481 C-29.74404722 298.39068934 -29.74867527 276.2356987 -29.74792381 254.08070147 C-29.74788386 252.88891862 -29.7478439 251.69713577 -29.74780273 250.46923828 C-29.74776185 249.27599485 -29.74772097 248.08275141 -29.74767885 246.85334909 C-29.74727175 227.48355509 -29.75686095 208.11378048 -29.7709411 188.74399209 C-29.78529967 168.83372057 -29.79221172 148.92345852 -29.79134732 129.01318169 C-29.7910154 117.8432521 -29.79376128 106.67334288 -29.80452538 95.50341797 C-29.81362305 86.00255698 -29.81581129 76.50172563 -29.80901595 67.00086218 C-29.80574836 62.1551707 -29.805703 57.30953611 -29.8143692 52.46385002 C-29.82222332 48.02670838 -29.82081394 43.58966884 -29.81208507 39.15252972 C-29.81054781 37.54925396 -29.81237475 35.94597063 -29.81794515 34.34270382 C-29.88814481 12.70165623 -29.88814481 12.70165623 -23.36669922 5.92871094 C-16.38952787 0.16192304 -8.71760218 -0.17845654 0 0 Z " fill="#E32027" transform="translate(304.5625,427.5625)"/>
<path d="M0 0 C10.16302939 8.31520586 15.47882788 19.76641088 17.0625 32.6875 C17.62636226 41.19896623 17.47318177 49.74775228 17.45068359 58.27294922 C17.45475374 60.86493144 17.4600981 63.45691193 17.46661377 66.04888916 C17.47989774 72.33877813 17.47709492 78.62855919 17.46837585 84.91845225 C17.46156773 90.04517302 17.46069605 95.1718638 17.4639473 100.2985878 C17.464407 101.03167283 17.46486669 101.76475787 17.46534032 102.5200576 C17.46629966 104.01009599 17.46727231 105.50013438 17.4682581 106.99017276 C17.47679922 120.94317424 17.46700362 134.89611648 17.450857 148.84910823 C17.43750557 160.75311377 17.43974147 172.65703129 17.45361328 184.56103516 C17.46977968 198.44025113 17.47592252 212.31941495 17.46677649 226.19863904 C17.46582106 227.68833549 17.46487795 229.17803195 17.4639473 230.66772842 C17.46348447 231.40031306 17.46302164 232.13289769 17.46254479 232.88768186 C17.45998398 237.9833708 17.46432174 243.0790256 17.47138596 248.17470932 C17.55764769 316.47488283 13.43029993 381.48795589 -32.9375 435.6875 C-34.02042644 436.97450771 -35.10246701 438.26226137 -36.18359375 439.55078125 C-41.19525966 445.49560589 -46.21440376 451.40783979 -51.9375 456.6875 C-52.50082031 457.20957031 -53.06414062 457.73164062 -53.64453125 458.26953125 C-78.35654714 480.4843329 -107.46858168 496.72959689 -136.9375 511.6875 C-138.41821297 512.447441 -139.89871058 513.20780191 -141.37890625 513.96875 C-149.25059293 517.98856188 -157.24369022 521.69755414 -165.32348633 525.28027344 C-170.88996173 527.74857577 -176.41464234 530.30020318 -181.929245 532.88179016 C-189.53812856 536.44154628 -197.17328815 539.94339661 -204.8125 543.4375 C-205.94288193 543.9549176 -205.94288193 543.9549176 -207.09609985 544.48278809 C-218.06253159 549.49976402 -229.05804771 554.43949919 -240.12255859 559.23730469 C-244.85694486 561.2964526 -249.51051021 563.4378248 -254.11108398 565.78027344 C-256.98016586 567.20541824 -259.92659423 568.43646374 -262.875 569.6875 C-269.88664731 572.70534125 -276.75788956 575.98055796 -283.625 579.3125 C-297.59673078 586.07515599 -311.73409808 592.43022713 -325.9375 598.6875 C-327.01870117 599.16477539 -328.09990234 599.64205078 -329.21386719 600.13378906 C-332.16005292 601.43040568 -335.11005248 602.71771559 -338.0625 604 C-338.92713867 604.37922607 -339.79177734 604.75845215 -340.68261719 605.14916992 C-341.86452637 605.65734253 -341.86452637 605.65734253 -343.0703125 606.17578125 C-343.74980957 606.47009033 -344.42930664 606.76439941 -345.12939453 607.06762695 C-346.9375 607.6875 -346.9375 607.6875 -349.9375 607.6875 C-349.9375 577.3275 -349.9375 546.9675 -349.9375 515.6875 C-338.67659661 510.62009347 -327.41721416 505.55803918 -316.125 500.5625 C-307.41244238 496.69806401 -298.73953955 492.77374119 -290.11816406 488.70996094 C-285.17151285 486.39059514 -280.20983945 484.10348699 -275.25 481.8125 C-274.11578613 481.28825439 -272.98157227 480.76400879 -271.81298828 480.22387695 C-266.07953522 477.57902692 -260.33574682 474.96292595 -254.56420898 472.40234375 C-244.489308 467.92980621 -234.57297529 463.15289452 -224.66415405 458.3270874 C-216.00917836 454.11350661 -207.32801058 449.98046279 -198.5625 446 C-151.58075696 424.60790794 -106.64289708 400.46181542 -87.31640625 349.48046875 C-80.97566597 331.98634877 -77.83809868 313.52494678 -77.73649597 294.94320679 C-77.72717476 293.89566589 -77.71785354 292.84812499 -77.70824987 291.76884043 C-77.6786251 288.2760894 -77.6559555 284.7833316 -77.63354492 281.29052734 C-77.61416942 278.77795222 -77.59454528 276.26537901 -77.57469177 273.75280762 C-77.40115878 250.78729965 -77.30744923 227.82114508 -77.23362255 204.85512352 C-77.22355703 201.77922885 -77.21330572 198.70333487 -77.20288086 195.62744141 C-77.20029864 194.8631027 -77.19771641 194.098764 -77.19505594 193.31126352 C-77.1521024 180.98133075 -77.06379732 168.65214298 -76.95753094 156.32261102 C-76.84889559 143.61069007 -76.78707446 130.89915224 -76.76776773 118.18677866 C-76.75572503 111.07089601 -76.72359911 103.95639692 -76.63817406 96.84098434 C-75.73964711 54.21506663 -75.73964711 54.21506663 -89.9375 14.6875 C-87.39978712 12.0847033 -85.34114935 10.1406945 -82.015625 8.64453125 C-80.86525757 8.12342773 -80.86525757 8.12342773 -79.69165039 7.59179688 C-78.45209595 7.05135742 -78.45209595 7.05135742 -77.1875 6.5 C-76.32439209 6.11779297 -75.46128418 5.73558594 -74.57202148 5.34179688 C-23.60909558 -16.8636397 -23.60909558 -16.8636397 0 0 Z " fill="#E32127" transform="translate(1144.9375,439.3125)"/>
</svg>
